<svg width="260" height="90" viewBox="0 0 2600 900" fill="none" xmlns="http://www.w3.org/2000/svg">
<path fill-rule="evenodd" clip-rule="evenodd" d="M317.256 777.647L428.593 797.279L433.735 768.12L308.874 746.103C307.585 738.197 306.036 727.43 303.891 714.762L469.471 743.958C468.651 749.11 467.94 753.217 467.262 756.059C462.578 780.121 450.668 806.547 419.676 806.547H389H358.324C336.662 806.547 324.322 793.637 317.256 777.647L317.256 777.647Z" fill="#272727"/>
<path fill-rule="evenodd" clip-rule="evenodd" d="M518.57 570.535L529.61 553.505C535.012 545.964 540.898 538.817 547.319 532.203C549.546 529.909 551.487 527.713 553.165 525.609C604.596 479.819 636.99 413.107 636.99 338.828C636.99 200.757 525.062 88.8279 386.99 88.8279C317.955 88.8279 255.455 116.81 210.214 162.051C164.973 207.292 136.99 269.792 136.99 338.828C136.99 410.571 167.211 475.256 215.616 520.848C220.395 526.076 220.778 526.59 225.78 531.284C226.069 531.588 220.989 526.652 225.78 531.284C238.313 543.398 248.339 551.35 256.565 555.632C270.195 560.29 289.03 563.555 307.142 565.723C310.235 566.093 312.718 566.464 314.116 566.633C318.435 567.154 319.357 567.46 322.484 568.027L479.403 595.354L469.907 623.217L264.268 586.957C269.593 597.706 274.23 608.783 278.281 619.891L460.114 651.953L450.618 679.816L288.279 651.191C291.335 662.156 293.897 672.869 296.071 683.028L472.021 714.052C478.605 675.042 490.834 617.756 518.57 570.535ZM488.153 566.434L433.044 556.592L423.509 555.156C415.709 554.202 417.395 554.503 408.637 553.177C401.185 552.049 393.233 550.858 385.118 549.642C349.798 544.351 311.378 538.596 297.58 535.558L297.243 535.484C281.846 532.095 281.54 532.027 272.074 528.027C261.826 523.696 249.841 512.493 248.301 511.075C244.272 506.906 248.301 511.075 244.272 506.906L242.451 504.885L240.764 503.203C194.134 461.687 166.99 402.483 166.99 338.828C166.99 279.659 190.416 224.276 231.427 183.264C272.438 142.253 327.822 118.828 386.99 118.828C508.493 118.828 606.99 217.325 606.99 338.828C606.99 402.483 579.847 461.687 533.216 503.203L531.305 504.905L529.709 506.906C528.644 508.241 527.342 509.711 525.793 511.307C520.487 516.773 515.44 522.599 510.642 528.77C509.494 529.843 507.631 531.966 504.649 536.135C497.567 546.031 496.555 547.711 492.53 556.431C490.199 561.481 488.877 564.567 488.153 566.434Z" fill="#272727"/>
<path d="M1150.26 614H1115.13L1107.81 518.84L1091.22 363.168H1087.8L1000.94 577.888H968.728L886.256 363.168H882.352L865.76 515.912L857.464 614H824.28L856.976 301.192H901.384L917.488 349.016L985.32 527.136H988.248L1059.5 346.088L1075.6 301.192H1119.52L1150.26 614ZM1219.32 417.824L1273 572.032H1276.42L1332.05 421.24L1339.37 390.496H1374.02L1293.98 606.192C1285.85 628.315 1277.07 645.72 1267.63 658.408C1258.52 671.096 1247.3 681.019 1233.96 688.176C1220.95 695.659 1203.7 702.003 1182.23 707.208H1178.82C1171.98 700.376 1166.62 692.731 1162.71 684.272L1163.69 679.88C1188.41 675 1207.28 668.005 1220.3 658.896C1233.63 650.112 1246 635.147 1257.38 614L1175.4 391.472L1212 389.032L1219.32 417.824ZM1745.28 522.256L1746.26 614H1705.27L1543.25 363.656H1540.81L1540.32 511.032L1540.81 614H1505.68L1507.14 521.28L1506.16 301.192H1546.67L1708.2 551.536H1711.61L1711.12 303.144L1747.72 300.216L1745.28 522.256ZM1905.88 386.592C1936.13 386.592 1959.56 396.515 1976.15 416.36C1993.07 435.88 2001.53 463.533 2001.53 499.32C2001.53 537.059 1992.74 566.339 1975.17 587.16C1957.61 607.656 1932.56 617.904 1900.02 617.904C1869.44 617.904 1845.69 608.144 1828.77 588.624C1812.18 568.779 1803.89 540.963 1803.89 505.176C1803.89 467.437 1812.67 438.32 1830.24 417.824C1848.13 397.003 1873.35 386.592 1905.88 386.592ZM1903.44 413.92C1882.94 413.92 1867.33 420.915 1856.59 434.904C1845.85 448.893 1840.49 469.389 1840.49 496.392C1840.49 527.624 1845.69 551.048 1856.1 566.664C1866.84 582.28 1882.29 590.088 1902.46 590.088C1922.96 590.088 1938.57 583.256 1949.31 569.592C1960.05 555.928 1965.41 535.432 1965.41 508.104C1965.41 477.197 1960.05 453.773 1949.31 437.832C1938.9 421.891 1923.61 413.92 1903.44 413.92ZM2145.59 386.592C2175.85 386.592 2199.27 396.515 2215.86 416.36C2232.78 435.88 2241.24 463.533 2241.24 499.32C2241.24 537.059 2232.45 566.339 2214.89 587.16C2197.32 607.656 2172.27 617.904 2139.73 617.904C2109.15 617.904 2085.4 608.144 2068.49 588.624C2051.89 568.779 2043.6 540.963 2043.6 505.176C2043.6 467.437 2052.38 438.32 2069.95 417.824C2087.84 397.003 2113.06 386.592 2145.59 386.592ZM2143.15 413.92C2122.65 413.92 2107.04 420.915 2096.3 434.904C2085.57 448.893 2080.2 469.389 2080.2 496.392C2080.2 527.624 2085.4 551.048 2095.81 566.664C2106.55 582.28 2122 590.088 2142.17 590.088C2162.67 590.088 2178.29 583.256 2189.02 569.592C2199.76 555.928 2205.13 535.432 2205.13 508.104C2205.13 477.197 2199.76 453.773 2189.02 437.832C2178.61 421.891 2163.32 413.92 2143.15 413.92ZM2339.92 515.912L2342.36 614H2303.8L2306.73 518.84L2304.29 274.84L2342.84 271.424L2339.92 515.912ZM2387.74 492.976C2410.19 523.232 2441.42 561.296 2481.44 607.168V611.56C2475.26 613.512 2468.42 614.976 2460.94 615.952C2453.78 617.253 2449.07 618.067 2446.79 618.392L2441.91 616.44C2405.15 572.845 2374.24 532.829 2349.19 496.392V492.976L2418.97 410.504L2431.66 390.496H2475.58L2387.74 492.976Z" fill="#272727"/>
</svg>
