<svg width="260" height="90" viewBox="0 0 2600 900" fill="none" xmlns="http://www.w3.org/2000/svg">
<path fill-rule="evenodd" clip-rule="evenodd" d="M2600 0H0V900H2600V0ZM428.593 797.279L317.256 777.647C324.322 793.637 336.662 806.547 358.324 806.547H389H419.676C450.668 806.547 462.578 780.121 467.262 756.059C467.94 753.217 468.651 749.11 469.471 743.958L303.891 714.762C305.231 722.678 306.339 729.852 307.296 736.049C307.87 739.769 308.39 743.138 308.874 746.103L433.735 768.12L428.593 797.279ZM518.57 570.535L529.61 553.505C535.012 545.964 540.898 538.817 547.319 532.203C549.546 529.909 551.487 527.713 553.165 525.609C604.596 479.819 636.99 413.107 636.99 338.828C636.99 200.757 525.062 88.8279 386.99 88.8279C317.955 88.8279 255.455 116.81 210.214 162.051C164.973 207.292 136.99 269.792 136.99 338.828C136.99 410.571 167.211 475.256 215.616 520.848C216.124 521.403 216.582 521.905 217.001 522.365L217.001 522.365C220.528 526.232 221.31 527.089 225.78 531.284C238.313 543.398 248.339 551.35 256.565 555.632C270.195 560.29 289.03 563.555 307.142 565.723C309.016 565.947 310.665 566.172 311.986 566.351C312.845 566.468 313.565 566.566 314.116 566.633C317.246 567.011 318.591 567.275 320.285 567.608C320.928 567.735 321.622 567.871 322.484 568.027L479.403 595.354L469.907 623.217L264.268 586.957C269.593 597.706 274.23 608.783 278.281 619.891L460.114 651.953L450.618 679.816L288.279 651.191C291.335 662.156 293.897 672.869 296.071 683.028L472.021 714.052C478.605 675.042 490.834 617.756 518.57 570.535ZM488.153 566.434L433.044 556.592L423.509 555.156C421.487 554.908 420.103 554.745 419.009 554.617C415.882 554.249 415.125 554.16 408.637 553.177C401.185 552.049 393.233 550.858 385.118 549.642C349.798 544.351 311.378 538.596 297.58 535.558L297.243 535.484C281.846 532.095 281.54 532.027 272.074 528.027C262.104 523.813 250.491 513.096 248.449 511.212L248.301 511.075L244.272 506.906L242.451 504.885L240.764 503.203C194.134 461.687 166.99 402.483 166.99 338.828C166.99 279.659 190.416 224.276 231.427 183.264C272.438 142.253 327.822 118.828 386.99 118.828C508.493 118.828 606.99 217.325 606.99 338.828C606.99 402.483 579.847 461.687 533.216 503.203L531.305 504.905L529.709 506.906C528.644 508.241 527.342 509.711 525.792 511.307C520.487 516.773 515.44 522.599 510.642 528.77C509.494 529.843 507.631 531.966 504.649 536.135C497.567 546.031 496.555 547.711 492.53 556.431C490.199 561.481 488.877 564.567 488.153 566.434ZM1115.13 614H1150.26L1119.52 301.192H1075.6L1059.5 346.088L988.248 527.136H985.32L917.488 349.016L901.384 301.192H856.976L824.28 614H857.464L865.76 515.912L882.352 363.168H886.256L968.728 577.888H1000.94L1087.8 363.168H1091.22L1107.81 518.84L1115.13 614ZM1273 572.032L1219.32 417.824L1212 389.032L1175.4 391.472L1257.38 614C1246 635.147 1233.63 650.112 1220.3 658.896C1207.28 668.005 1188.41 675 1163.69 679.88L1162.71 684.272C1166.62 692.731 1171.98 700.376 1178.82 707.208H1182.23C1203.7 702.003 1220.95 695.659 1233.96 688.176C1247.3 681.019 1258.52 671.096 1267.63 658.408C1277.07 645.72 1285.85 628.315 1293.98 606.192L1374.02 390.496H1339.37L1332.05 421.24L1276.42 572.032H1273ZM1746.26 614L1745.28 522.256L1747.72 300.216L1711.12 303.144L1711.61 551.536H1708.2L1546.67 301.192H1506.16L1507.14 521.28L1505.68 614H1540.81L1540.32 511.032L1540.81 363.656H1543.25L1705.27 614H1746.26ZM1976.15 416.36C1959.56 396.515 1936.13 386.592 1905.88 386.592C1873.35 386.592 1848.13 397.003 1830.24 417.824C1812.67 438.32 1803.89 467.437 1803.89 505.176C1803.89 540.963 1812.18 568.779 1828.77 588.624C1845.69 608.144 1869.44 617.904 1900.02 617.904C1932.56 617.904 1957.61 607.656 1975.17 587.16C1992.74 566.339 2001.53 537.059 2001.53 499.32C2001.53 463.533 1993.07 435.88 1976.15 416.36ZM1856.59 434.904C1867.33 420.915 1882.94 413.92 1903.44 413.92C1923.61 413.92 1938.9 421.891 1949.31 437.832C1960.05 453.773 1965.41 477.197 1965.41 508.104C1965.41 535.432 1960.05 555.928 1949.31 569.592C1938.57 583.256 1922.96 590.088 1902.46 590.088C1882.29 590.088 1866.84 582.28 1856.1 566.664C1845.69 551.048 1840.49 527.624 1840.49 496.392C1840.49 469.389 1845.85 448.893 1856.59 434.904ZM2215.86 416.36C2199.27 396.515 2175.85 386.592 2145.59 386.592C2113.06 386.592 2087.84 397.003 2069.95 417.824C2052.38 438.32 2043.6 467.437 2043.6 505.176C2043.6 540.963 2051.89 568.779 2068.49 588.624C2085.4 608.144 2109.15 617.904 2139.73 617.904C2172.27 617.904 2197.32 607.656 2214.89 587.16C2232.45 566.339 2241.24 537.059 2241.24 499.32C2241.24 463.533 2232.78 435.88 2215.86 416.36ZM2096.3 434.904C2107.04 420.915 2122.65 413.92 2143.15 413.92C2163.32 413.92 2178.61 421.891 2189.02 437.832C2199.76 453.773 2205.13 477.197 2205.13 508.104C2205.13 535.432 2199.76 555.928 2189.02 569.592C2178.29 583.256 2162.67 590.088 2142.17 590.088C2122 590.088 2106.55 582.28 2095.81 566.664C2085.4 551.048 2080.2 527.624 2080.2 496.392C2080.2 469.389 2085.57 448.893 2096.3 434.904ZM2342.36 614L2339.92 515.912L2342.84 271.424L2304.29 274.84L2306.73 518.84L2303.8 614H2342.36ZM2481.44 607.168C2441.42 561.296 2410.19 523.232 2387.74 492.976L2475.58 390.496H2431.66L2418.97 410.504L2349.19 492.976V496.392C2374.24 532.829 2405.15 572.845 2441.91 616.44L2446.79 618.392C2449.07 618.067 2453.78 617.253 2460.94 615.952C2468.42 614.976 2475.26 613.512 2481.44 611.56V607.168Z" fill="#272727"/>
</svg>
